<?xml version="1.0" encoding="UTF-8"?>
<svg version="1.1" xmlns="http://www.w3.org/2000/svg" width="32" height="32">
<path d="M0 0 C4.0426427 0.53925096 5.93212706 2.54542594 8.765625 5.3671875 C9.65507812 6.25277344 10.54453125 7.13835938 11.4609375 8.05078125 C12.38132812 8.98277344 13.30171875 9.91476562 14.25 10.875 C15.65378906 12.26138672 15.65378906 12.26138672 17.0859375 13.67578125 C17.97023438 14.56394531 18.85453125 15.45210937 19.765625 16.3671875 C20.98427246 17.59091064 20.98427246 17.59091064 22.22753906 18.83935547 C24 21 24 21 24 24 C23.05125 23.835 22.1025 23.67 21.125 23.5 C18.00266957 23.02500044 15.08926453 23.04922289 11.9375 23.1875 C5.80953582 23.2432933 2.86547845 20.81764567 -1.4375 16.625 C-3 14 -3 14 -2.9375 10.9375 C-2 8 -2 8 -0.375 5.875 C1.27720088 4.07853332 1.27720088 4.07853332 0.6875 1.75 C0.460625 1.1725 0.23375 0.595 0 0 Z M6 10 C6.26656572 12.93443402 6.26656572 12.93443402 7 16 C9.95377498 18.36980013 9.95377498 18.36980013 14 18 C14 17.34 14 16.68 14 16 C12.35 15.67 10.7 15.34 9 15 C8.67 13.35 8.34 11.7 8 10 C7.34 10 6.68 10 6 10 Z " fill="#000000" transform="translate(4,4)"/>
<path d="M0 0 C4.98704856 -0.35480978 8.82919691 -0.58540154 13.375 1.6875 C16.04057706 4.03574646 18.17845978 5.93981243 20 9 C20 12.1875 20 12.1875 19 15 C16.9375 16.375 16.9375 16.375 15 17 C12.33892021 14.69373085 11.10513422 13.39627512 10.1875 9.9375 C9.23792671 6.62611707 9.23792671 6.62611707 5.5 5.375 C4.345 4.92125 3.19 4.4675 2 4 C0.78125 1.9140625 0.78125 1.9140625 0 0 Z " fill="#000000" transform="translate(11,5)"/>
</svg>
