<?xml version="1.0" encoding="UTF-8"?>
<svg version="1.1" xmlns="http://www.w3.org/2000/svg" width="32" height="32">
<path d="M0 0 C4.33548452 2.16774226 7.50875895 4.81471503 10 9 C10.1875 11.9375 10.1875 11.9375 9 15 C5.93065009 18.28313547 2.44042227 21.73225583 -2.171875 22.23828125 C-8.01846537 22.40659218 -11.43192863 22.02425335 -16 18 C-18.80289443 15.26897466 -19.93666414 13.99226178 -20.1875 10.0625 C-16.74501149 1.18450333 -8.70324937 -0.96405224 0 0 Z M-9.3125 6.625 C-11.31144032 8.93917754 -11.31144032 8.93917754 -10.9375 12.125 C-10.23305313 15.29174932 -10.23305313 15.29174932 -7 17 C-3.92334973 16.91778291 -3.92334973 16.91778291 -1 16 C1.32038095 13.17431454 1.32038095 13.17431454 0.8125 9.9375 C0.26245502 6.70259047 0.26245502 6.70259047 -3 5 C-6.925598 4.61670299 -6.925598 4.61670299 -9.3125 6.625 Z " fill="#000000" transform="translate(21,5)"/>
<path d="M0 0 C3 0.125 3 0.125 4 1.125 C4.125 4.125 4.125 4.125 4 7.125 C3 8.125 3 8.125 0 8.25 C-3 8.125 -3 8.125 -4 7.125 C-4.125 4.125 -4.125 4.125 -4 1.125 C-3 0.125 -3 0.125 0 0 Z " fill="#000000" transform="translate(16,11.875)"/>
</svg>
